<?xml version="1.0" encoding="UTF-8" standalone="yes"?><svg xmlns="http://www.w3.org/2000/svg" xmlns:xlink="http://www.w3.org/1999/xlink" height="451px" style="width:1106px;height:451px;" version="1.1" viewBox="0 0 1106 451" width="1106px"><defs><filter height="300%" id="f1" width="300%" x="-1" y="-1"><feGaussianBlur result="blurOut" stdDeviation="2.0"/><feColorMatrix in="blurOut" result="blurOut2" type="matrix" values="0 0 0 0 0 0 0 0 0 0 0 0 0 0 0 0 0 0 .4 0"/><feOffset dx="4.0" dy="4.0" in="blurOut2" result="blurOut3"/><feBlend in="SourceGraphic" in2="blurOut3" mode="normal"/></filter></defs><g><rect fill="#FEFECE" filter="url(#f1)" height="48" style="stroke: #A80036; stroke-width: 1.5;" width="77" x="623.75" y="8"/><ellipse cx="638.75" cy="24" fill="#B4A7E5" rx="11" ry="11" style="stroke: #A80036; stroke-width: 1.0;"/><path d="M634.6719,19.7656 L634.6719,17.6094 L642.0625,17.6094 L642.0625,19.7656 L639.5938,19.7656 L639.5938,27.8438 L642.0625,27.8438 L642.0625,30 L634.6719,30 L634.6719,27.8438 L637.1406,27.8438 L637.1406,19.7656 L634.6719,19.7656 Z "/><text fill="#000000" font-family="sans-serif" font-size="12" font-style="italic" lengthAdjust="spacingAndGlyphs" textLength="45" x="652.75" y="28.1543">Vehicle</text><line style="stroke: #A80036; stroke-width: 1.5;" x1="624.75" x2="699.75" y1="40" y2="40"/><line style="stroke: #A80036; stroke-width: 1.5;" x1="624.75" x2="699.75" y1="48" y2="48"/><rect fill="#FEFECE" filter="url(#f1)" height="48" style="stroke: #A80036; stroke-width: 1.5;" width="116" x="890.5" y="116"/><ellipse cx="905.5" cy="132" fill="#B4A7E5" rx="11" ry="11" style="stroke: #A80036; stroke-width: 1.0;"/><path d="M901.4219,127.7656 L901.4219,125.6094 L908.8125,125.6094 L908.8125,127.7656 L906.3438,127.7656 L906.3438,135.8438 L908.8125,135.8438 L908.8125,138 L901.4219,138 L901.4219,135.8438 L903.8906,135.8438 L903.8906,127.7656 L901.4219,127.7656 Z "/><text fill="#000000" font-family="sans-serif" font-size="12" font-style="italic" lengthAdjust="spacingAndGlyphs" textLength="84" x="919.5" y="136.1543">SpaceVehicle</text><line style="stroke: #A80036; stroke-width: 1.5;" x1="891.5" x2="1005.5" y1="148" y2="148"/><line style="stroke: #A80036; stroke-width: 1.5;" x1="891.5" x2="1005.5" y1="156" y2="156"/><rect fill="#FEFECE" filter="url(#f1)" height="48" style="stroke: #A80036; stroke-width: 1.5;" width="93" x="685.75" y="116"/><ellipse cx="700.75" cy="132" fill="#B4A7E5" rx="11" ry="11" style="stroke: #A80036; stroke-width: 1.0;"/><path d="M696.6719,127.7656 L696.6719,125.6094 L704.0625,125.6094 L704.0625,127.7656 L701.5938,127.7656 L701.5938,135.8438 L704.0625,135.8438 L704.0625,138 L696.6719,138 L696.6719,135.8438 L699.1406,135.8438 L699.1406,127.7656 L696.6719,127.7656 Z "/><text fill="#000000" font-family="sans-serif" font-size="12" font-style="italic" lengthAdjust="spacingAndGlyphs" textLength="61" x="714.75" y="136.1543">AirVehicle</text><line style="stroke: #A80036; stroke-width: 1.5;" x1="686.75" x2="777.75" y1="148" y2="148"/><line style="stroke: #A80036; stroke-width: 1.5;" x1="686.75" x2="777.75" y1="156" y2="156"/><rect fill="#FEFECE" filter="url(#f1)" height="48" style="stroke: #A80036; stroke-width: 1.5;" width="108" x="341" y="116"/><ellipse cx="356" cy="132" fill="#B4A7E5" rx="11" ry="11" style="stroke: #A80036; stroke-width: 1.0;"/><path d="M351.9219,127.7656 L351.9219,125.6094 L359.3125,125.6094 L359.3125,127.7656 L356.8438,127.7656 L356.8438,135.8438 L359.3125,135.8438 L359.3125,138 L351.9219,138 L351.9219,135.8438 L354.3906,135.8438 L354.3906,127.7656 L351.9219,127.7656 Z "/><text fill="#000000" font-family="sans-serif" font-size="12" font-style="italic" lengthAdjust="spacingAndGlyphs" textLength="76" x="370" y="136.1543">LandVehicle</text><line style="stroke: #A80036; stroke-width: 1.5;" x1="342" x2="448" y1="148" y2="148"/><line style="stroke: #A80036; stroke-width: 1.5;" x1="342" x2="448" y1="156" y2="156"/><rect fill="#FEFECE" filter="url(#f1)" height="48" style="stroke: #A80036; stroke-width: 1.5;" width="115" x="535.75" y="116"/><ellipse cx="550.75" cy="132" fill="#B4A7E5" rx="11" ry="11" style="stroke: #A80036; stroke-width: 1.0;"/><path d="M546.6719,127.7656 L546.6719,125.6094 L554.0625,125.6094 L554.0625,127.7656 L551.5938,127.7656 L551.5938,135.8438 L554.0625,135.8438 L554.0625,138 L546.6719,138 L546.6719,135.8438 L549.1406,135.8438 L549.1406,127.7656 L546.6719,127.7656 Z "/><text fill="#000000" font-family="sans-serif" font-size="12" font-style="italic" lengthAdjust="spacingAndGlyphs" textLength="83" x="564.75" y="136.1543">WaterVehicle</text><line style="stroke: #A80036; stroke-width: 1.5;" x1="536.75" x2="649.75" y1="148" y2="148"/><line style="stroke: #A80036; stroke-width: 1.5;" x1="536.75" x2="649.75" y1="156" y2="156"/><rect fill="#FEFECE" filter="url(#f1)" height="48" style="stroke: #A80036; stroke-width: 1.5;" width="75" x="910.75" y="286"/><ellipse cx="925.75" cy="302" fill="#B4A7E5" rx="11" ry="11" style="stroke: #A80036; stroke-width: 1.0;"/><path d="M921.6719,297.7656 L921.6719,295.6094 L929.0625,295.6094 L929.0625,297.7656 L926.5938,297.7656 L926.5938,305.8438 L929.0625,305.8438 L929.0625,308 L921.6719,308 L921.6719,305.8438 L924.1406,305.8438 L924.1406,297.7656 L921.6719,297.7656 Z "/><text fill="#000000" font-family="sans-serif" font-size="12" font-style="italic" lengthAdjust="spacingAndGlyphs" textLength="43" x="939.75" y="306.1543">Rocket</text><line style="stroke: #A80036; stroke-width: 1.5;" x1="911.75" x2="984.75" y1="318" y2="318"/><line style="stroke: #A80036; stroke-width: 1.5;" x1="911.75" x2="984.75" y1="326" y2="326"/><rect fill="#FEFECE" filter="url(#f1)" height="48" style="stroke: #A80036; stroke-width: 1.5;" width="77" x="1020.75" y="286"/><ellipse cx="1035.75" cy="302" fill="#B4A7E5" rx="11" ry="11" style="stroke: #A80036; stroke-width: 1.0;"/><path d="M1031.6719,297.7656 L1031.6719,295.6094 L1039.0625,295.6094 L1039.0625,297.7656 L1036.5938,297.7656 L1036.5938,305.8438 L1039.0625,305.8438 L1039.0625,308 L1031.6719,308 L1031.6719,305.8438 L1034.1406,305.8438 L1034.1406,297.7656 L1031.6719,297.7656 Z "/><text fill="#000000" font-family="sans-serif" font-size="12" font-style="italic" lengthAdjust="spacingAndGlyphs" textLength="45" x="1049.75" y="306.1543">Shuttle</text><line style="stroke: #A80036; stroke-width: 1.5;" x1="1021.75" x2="1096.75" y1="318" y2="318"/><line style="stroke: #A80036; stroke-width: 1.5;" x1="1021.75" x2="1096.75" y1="326" y2="326"/><rect fill="#FEFECE" filter="url(#f1)" height="48" style="stroke: #A80036; stroke-width: 1.5;" width="78" x="685" y="286"/><ellipse cx="700" cy="302" fill="#B4A7E5" rx="11" ry="11" style="stroke: #A80036; stroke-width: 1.0;"/><path d="M695.9219,297.7656 L695.9219,295.6094 L703.3125,295.6094 L703.3125,297.7656 L700.8438,297.7656 L700.8438,305.8438 L703.3125,305.8438 L703.3125,308 L695.9219,308 L695.9219,305.8438 L698.3906,305.8438 L698.3906,297.7656 L695.9219,297.7656 Z "/><text fill="#000000" font-family="sans-serif" font-size="12" font-style="italic" lengthAdjust="spacingAndGlyphs" textLength="46" x="714" y="306.1543">Balloon</text><line style="stroke: #A80036; stroke-width: 1.5;" x1="686" x2="762" y1="318" y2="318"/><line style="stroke: #A80036; stroke-width: 1.5;" x1="686" x2="762" y1="326" y2="326"/><rect fill="#FEFECE" filter="url(#f1)" height="48" style="stroke: #A80036; stroke-width: 1.5;" width="77" x="798.75" y="286"/><ellipse cx="813.75" cy="302" fill="#B4A7E5" rx="11" ry="11" style="stroke: #A80036; stroke-width: 1.0;"/><path d="M809.6719,297.7656 L809.6719,295.6094 L817.0625,295.6094 L817.0625,297.7656 L814.5938,297.7656 L814.5938,305.8438 L817.0625,305.8438 L817.0625,308 L809.6719,308 L809.6719,305.8438 L812.1406,305.8438 L812.1406,297.7656 L809.6719,297.7656 Z "/><text fill="#000000" font-family="sans-serif" font-size="12" font-style="italic" lengthAdjust="spacingAndGlyphs" textLength="45" x="827.75" y="306.1543">Aircraft</text><line style="stroke: #A80036; stroke-width: 1.5;" x1="799.75" x2="874.75" y1="318" y2="318"/><line style="stroke: #A80036; stroke-width: 1.5;" x1="799.75" x2="874.75" y1="326" y2="326"/><rect fill="#FEFECE" filter="url(#f1)" height="48" style="stroke: #A80036; stroke-width: 1.5;" width="59" x="456.75" y="286"/><ellipse cx="471.75" cy="302" fill="#B4A7E5" rx="11" ry="11" style="stroke: #A80036; stroke-width: 1.0;"/><path d="M467.6719,297.7656 L467.6719,295.6094 L475.0625,295.6094 L475.0625,297.7656 L472.5938,297.7656 L472.5938,305.8438 L475.0625,305.8438 L475.0625,308 L467.6719,308 L467.6719,305.8438 L470.1406,305.8438 L470.1406,297.7656 L467.6719,297.7656 Z "/><text fill="#000000" font-family="sans-serif" font-size="12" font-style="italic" lengthAdjust="spacingAndGlyphs" textLength="27" x="485.75" y="306.1543">Ship</text><line style="stroke: #A80036; stroke-width: 1.5;" x1="457.75" x2="514.75" y1="318" y2="318"/><line style="stroke: #A80036; stroke-width: 1.5;" x1="457.75" x2="514.75" y1="326" y2="326"/><rect fill="#FEFECE" filter="url(#f1)" height="48" style="stroke: #A80036; stroke-width: 1.5;" width="99" x="550.75" y="286"/><ellipse cx="565.75" cy="302" fill="#B4A7E5" rx="11" ry="11" style="stroke: #A80036; stroke-width: 1.0;"/><path d="M561.6719,297.7656 L561.6719,295.6094 L569.0625,295.6094 L569.0625,297.7656 L566.5938,297.7656 L566.5938,305.8438 L569.0625,305.8438 L569.0625,308 L561.6719,308 L561.6719,305.8438 L564.1406,305.8438 L564.1406,297.7656 L561.6719,297.7656 Z "/><text fill="#000000" font-family="sans-serif" font-size="12" font-style="italic" lengthAdjust="spacingAndGlyphs" textLength="67" x="579.75" y="306.1543">Submarine</text><line style="stroke: #A80036; stroke-width: 1.5;" x1="551.75" x2="648.75" y1="318" y2="318"/><line style="stroke: #A80036; stroke-width: 1.5;" x1="551.75" x2="648.75" y1="326" y2="326"/><rect fill="#FEFECE" filter="url(#f1)" height="48" style="stroke: #A80036; stroke-width: 1.5;" width="58" x="173.5" y="286"/><ellipse cx="188.5" cy="302" fill="#B4A7E5" rx="11" ry="11" style="stroke: #A80036; stroke-width: 1.0;"/><path d="M184.4219,297.7656 L184.4219,295.6094 L191.8125,295.6094 L191.8125,297.7656 L189.3438,297.7656 L189.3438,305.8438 L191.8125,305.8438 L191.8125,308 L184.4219,308 L184.4219,305.8438 L186.8906,305.8438 L186.8906,297.7656 L184.4219,297.7656 Z "/><text fill="#000000" font-family="sans-serif" font-size="12" font-style="italic" lengthAdjust="spacingAndGlyphs" textLength="26" x="202.5" y="306.1543">Bike</text><line style="stroke: #A80036; stroke-width: 1.5;" x1="174.5" x2="230.5" y1="318" y2="318"/><line style="stroke: #A80036; stroke-width: 1.5;" x1="174.5" x2="230.5" y1="326" y2="326"/><rect fill="#FEFECE" filter="url(#f1)" height="48" style="stroke: #A80036; stroke-width: 1.5;" width="53" x="368.75" y="286"/><ellipse cx="383.75" cy="302" fill="#B4A7E5" rx="11" ry="11" style="stroke: #A80036; stroke-width: 1.0;"/><path d="M379.6719,297.7656 L379.6719,295.6094 L387.0625,295.6094 L387.0625,297.7656 L384.5938,297.7656 L384.5938,305.8438 L387.0625,305.8438 L387.0625,308 L379.6719,308 L379.6719,305.8438 L382.1406,305.8438 L382.1406,297.7656 L379.6719,297.7656 Z "/><text fill="#000000" font-family="sans-serif" font-size="12" font-style="italic" lengthAdjust="spacingAndGlyphs" textLength="21" x="397.75" y="306.1543">Car</text><line style="stroke: #A80036; stroke-width: 1.5;" x1="369.75" x2="420.75" y1="318" y2="318"/><line style="stroke: #A80036; stroke-width: 1.5;" x1="369.75" x2="420.75" y1="326" y2="326"/><rect fill="#FEFECE" filter="url(#f1)" height="48" style="stroke: #A80036; stroke-width: 1.5;" width="106" x="282.5" y="394"/><ellipse cx="297.5" cy="410" fill="#B4A7E5" rx="11" ry="11" style="stroke: #A80036; stroke-width: 1.0;"/><path d="M293.4219,405.7656 L293.4219,403.6094 L300.8125,403.6094 L300.8125,405.7656 L298.3438,405.7656 L298.3438,413.8438 L300.8125,413.8438 L300.8125,416 L293.4219,416 L293.4219,413.8438 L295.8906,413.8438 L295.8906,405.7656 L293.4219,405.7656 Z "/><text fill="#000000" font-family="sans-serif" font-size="12" font-style="italic" lengthAdjust="spacingAndGlyphs" textLength="74" x="311.5" y="414.1543">PersonalCar</text><line style="stroke: #A80036; stroke-width: 1.5;" x1="283.5" x2="387.5" y1="426" y2="426"/><line style="stroke: #A80036; stroke-width: 1.5;" x1="283.5" x2="387.5" y1="434" y2="434"/><rect fill="#FEFECE" filter="url(#f1)" height="48" style="stroke: #A80036; stroke-width: 1.5;" width="66" x="423" y="394"/><ellipse cx="438" cy="410" fill="#B4A7E5" rx="11" ry="11" style="stroke: #A80036; stroke-width: 1.0;"/><path d="M433.9219,405.7656 L433.9219,403.6094 L441.3125,403.6094 L441.3125,405.7656 L438.8438,405.7656 L438.8438,413.8438 L441.3125,413.8438 L441.3125,416 L433.9219,416 L433.9219,413.8438 L436.3906,413.8438 L436.3906,405.7656 L433.9219,405.7656 Z "/><text fill="#000000" font-family="sans-serif" font-size="12" font-style="italic" lengthAdjust="spacingAndGlyphs" textLength="34" x="452" y="414.1543">Truck</text><line style="stroke: #A80036; stroke-width: 1.5;" x1="424" x2="488" y1="426" y2="426"/><line style="stroke: #A80036; stroke-width: 1.5;" x1="424" x2="488" y1="434" y2="434"/><rect fill="#FEFECE" filter="url(#f1)" height="48" style="stroke: #A80036; stroke-width: 1.5;" width="82" x="524" y="394"/><ellipse cx="539" cy="410" fill="#B4A7E5" rx="11" ry="11" style="stroke: #A80036; stroke-width: 1.0;"/><path d="M534.9219,405.7656 L534.9219,403.6094 L542.3125,403.6094 L542.3125,405.7656 L539.8438,405.7656 L539.8438,413.8438 L542.3125,413.8438 L542.3125,416 L534.9219,416 L534.9219,413.8438 L537.3906,413.8438 L537.3906,405.7656 L534.9219,405.7656 Z "/><text fill="#000000" font-family="sans-serif" font-size="12" font-style="italic" lengthAdjust="spacingAndGlyphs" textLength="50" x="553" y="414.1543">Formula</text><line style="stroke: #A80036; stroke-width: 1.5;" x1="525" x2="605" y1="426" y2="426"/><line style="stroke: #A80036; stroke-width: 1.5;" x1="525" x2="605" y1="434" y2="434"/><rect fill="#FEFECE" filter="url(#f1)" height="48" style="stroke: #A80036; stroke-width: 1.5;" width="116" x="6.5" y="394"/><ellipse cx="21.5" cy="410" fill="#B4A7E5" rx="11" ry="11" style="stroke: #A80036; stroke-width: 1.0;"/><path d="M17.4219,405.7656 L17.4219,403.6094 L24.8125,403.6094 L24.8125,405.7656 L22.3438,405.7656 L22.3438,413.8438 L24.8125,413.8438 L24.8125,416 L17.4219,416 L17.4219,413.8438 L19.8906,413.8438 L19.8906,405.7656 L17.4219,405.7656 Z "/><text fill="#000000" font-family="sans-serif" font-size="12" font-style="italic" lengthAdjust="spacingAndGlyphs" textLength="84" x="35.5" y="414.1543">MountainBike</text><line style="stroke: #A80036; stroke-width: 1.5;" x1="7.5" x2="121.5" y1="426" y2="426"/><line style="stroke: #A80036; stroke-width: 1.5;" x1="7.5" x2="121.5" y1="434" y2="434"/><rect fill="#FEFECE" filter="url(#f1)" height="48" style="stroke: #A80036; stroke-width: 1.5;" width="90" x="157" y="394"/><ellipse cx="172" cy="410" fill="#B4A7E5" rx="11" ry="11" style="stroke: #A80036; stroke-width: 1.0;"/><path d="M167.9219,405.7656 L167.9219,403.6094 L175.3125,403.6094 L175.3125,405.7656 L172.8438,405.7656 L172.8438,413.8438 L175.3125,413.8438 L175.3125,416 L167.9219,416 L167.9219,413.8438 L170.3906,413.8438 L170.3906,405.7656 L167.9219,405.7656 Z "/><text fill="#000000" font-family="sans-serif" font-size="12" font-style="italic" lengthAdjust="spacingAndGlyphs" textLength="58" x="186" y="414.1543">RoadBike</text><line style="stroke: #A80036; stroke-width: 1.5;" x1="158" x2="246" y1="426" y2="426"/><line style="stroke: #A80036; stroke-width: 1.5;" x1="158" x2="246" y1="434" y2="434"/><path d="M719.135,54.176 C768.86,72.605 840.58,99.187 890.432,117.664 " fill="none" style="stroke: #A80036; stroke-width: 1.0;"/><polygon fill="none" points="716.595,60.7,700.274,47.186,721.461,47.573,716.595,60.7" style="stroke: #A80036; stroke-width: 1.0;"/><path d="M688.504,73.134 C697.99,87.499 708.363,103.207 716.599,115.678 " fill="none" style="stroke: #A80036; stroke-width: 1.0;"/><polygon fill="none" points="682.369,76.547,677.189,56,694.051,68.832,682.369,76.547" style="stroke: #A80036; stroke-width: 1.0;"/><path d="M604.948,55.65 C558.939,73.916 494.657,99.436 449.376,117.413 " fill="none" style="stroke: #A80036; stroke-width: 1.0;"/><polygon fill="none" points="602.574,49.061,623.745,48.187,607.74,62.073,602.574,49.061" style="stroke: #A80036; stroke-width: 1.0;"/><path d="M635.875,73.134 C626.524,87.499 616.299,103.207 608.181,115.678 " fill="none" style="stroke: #A80036; stroke-width: 1.0;"/><polygon fill="none" points="630.251,68.943,647.028,56,641.984,76.581,630.251,68.943" style="stroke: #A80036; stroke-width: 1.0;"/><path d="M948,184.367 C948,216.704 948,259.625 948,285.731 " fill="none" style="stroke: #A80036; stroke-width: 1.0;"/><polygon fill="none" points="941,184.007,948,164.007,955,184.007,941,184.007" style="stroke: #A80036; stroke-width: 1.0;"/><path d="M974.521,181.139 C996.098,213.796 1025.8,258.747 1043.63,285.731 " fill="none" style="stroke: #A80036; stroke-width: 1.0;"/><polygon fill="none" points="968.386,184.553,963.201,164.007,980.067,176.835,968.386,184.553" style="stroke: #A80036; stroke-width: 1.0;"/><path d="M729.935,184.367 C728.395,216.704 726.351,259.625 725.108,285.731 " fill="none" style="stroke: #A80036; stroke-width: 1.0;"/><polygon fill="none" points="722.961,183.652,730.904,164.007,736.945,184.318,722.961,183.652" style="stroke: #A80036; stroke-width: 1.0;"/><path d="M757.087,181.139 C777.498,213.796 805.592,258.747 822.457,285.731 " fill="none" style="stroke: #A80036; stroke-width: 1.0;"/><polygon fill="none" points="751.044,184.677,746.38,164.007,762.916,177.257,751.044,184.677" style="stroke: #A80036; stroke-width: 1.0;"/><path d="M567.435,181.139 C546.636,213.796 518.007,258.747 500.82,285.731 " fill="none" style="stroke: #A80036; stroke-width: 1.0;"/><polygon fill="none" points="561.698,177.116,578.346,164.007,573.507,184.637,561.698,177.116" style="stroke: #A80036; stroke-width: 1.0;"/><path d="M594.807,184.367 C596.154,216.704 597.943,259.625 599.03,285.731 " fill="none" style="stroke: #A80036; stroke-width: 1.0;"/><polygon fill="none" points="587.797,184.282,593.959,164.007,601.785,183.699,587.797,184.282" style="stroke: #A80036; stroke-width: 1.0;"/><path d="M353.269,177.326 C315.486,210.214 260.957,257.68 228.731,285.731 " fill="none" style="stroke: #A80036; stroke-width: 1.0;"/><polygon fill="none" points="348.887,171.859,368.569,164.007,358.079,182.419,348.887,171.859" style="stroke: #A80036; stroke-width: 1.0;"/><path d="M395,184.367 C395,216.704 395,259.625 395,285.731 " fill="none" style="stroke: #A80036; stroke-width: 1.0;"/><polygon fill="none" points="388,184.007,395,164.007,402,184.007,388,184.007" style="stroke: #A80036; stroke-width: 1.0;"/><path d="M372.011,351.6133 C363.954,365.8479 355.182,381.3452 348.201,393.6784 " fill="none" style="stroke: #A80036; stroke-width: 1.0;"/><polygon fill="none" points="366.037,347.9574,381.981,334,378.221,354.8538,366.037,347.9574" style="stroke: #A80036; stroke-width: 1.0;"/><path d="M418.372,351.6133 C426.563,365.8479 435.482,381.3452 442.579,393.6784 " fill="none" style="stroke: #A80036; stroke-width: 1.0;"/><polygon fill="none" points="412.145,354.8265,408.236,334,424.279,347.8436,412.145,354.8265" style="stroke: #A80036; stroke-width: 1.0;"/><path d="M438.839,338.335 C466.445,355.548 501.687,377.5225 527.903,393.8688 " fill="none" style="stroke: #A80036; stroke-width: 1.0;"/><polygon fill="none" points="434.83,344.0845,421.562,327.562,442.237,332.205,434.83,344.0845" style="stroke: #A80036; stroke-width: 1.0;"/><path d="M157.325,345.3153 C136.593,361.2399 112.501,379.7454 93.9891,393.9649 " fill="none" style="stroke: #A80036; stroke-width: 1.0;"/><polygon fill="none" points="153.281,339.595,173.406,332.963,161.809,350.6978,153.281,339.595" style="stroke: #A80036; stroke-width: 1.0;"/><path d="M202,354.0236 C202,367.5792 202,382.0381 202,393.6784 " fill="none" style="stroke: #A80036; stroke-width: 1.0;"/><polygon fill="none" points="195,354.0005,202,334,209,354.0004,195,354.0005" style="stroke: #A80036; stroke-width: 1.0;"/></g></svg>